<?xml version="1.0" standalone="no"?>
<!DOCTYPE svg PUBLIC "-//W3C//DTD SVG 20010904//EN"
 "http://www.w3.org/TR/2001/REC-SVG-20010904/DTD/svg10.dtd">
<svg version="1.0" xmlns="http://www.w3.org/2000/svg"
 width="2816.000000pt" height="1536.000000pt" viewBox="0 0 2816.000000 1536.000000"
 preserveAspectRatio="xMidYMid meet">

<g transform="translate(0.000000,1536.000000) scale(0.100000,-0.100000)"
fill="#000000" stroke="none">
<path d="M0 7680 l0 -7680 14080 0 14080 0 0 7680 0 7680 -14080 0 -14080 0 0
-7680z m14218 6213 c64 -3 163 -6 219 -7 56 0 99 -3 97 -5 -12 -13 35 -26 89
-25 34 1 68 -3 76 -10 12 -8 13 -8 7 2 -6 9 2 11 31 7 21 -2 70 -7 108 -10 80
-6 114 -10 144 -20 14 -4 23 -1 27 9 3 8 12 17 20 20 9 3 12 1 9 -4 -4 -6 5
-10 22 -10 47 0 63 -3 63 -14 0 -6 5 -5 12 2 9 9 15 9 27 -2 15 -13 35 -18
111 -31 14 -2 37 -8 51 -13 14 -6 50 -11 80 -13 38 -1 61 -8 76 -22 13 -11 25
-18 29 -15 3 3 21 2 41 -4 60 -16 77 -20 113 -25 19 -2 49 -10 65 -17 53 -24
100 -38 119 -38 10 1 32 -6 47 -14 15 -7 37 -14 47 -14 11 0 23 -7 26 -16 3
-8 10 -13 14 -10 9 6 73 -9 107 -24 11 -5 49 -19 85 -31 36 -12 71 -27 78 -32
6 -5 12 -7 12 -3 0 3 16 -1 36 -9 20 -8 49 -15 65 -15 26 0 59 -22 59 -39 0
-5 21 -16 48 -25 65 -24 94 -38 114 -54 9 -8 21 -11 27 -8 5 4 12 2 16 -4 3
-5 13 -10 20 -10 8 0 64 -24 125 -54 60 -30 110 -51 110 -45 0 5 7 9 16 9 8 0
12 -4 9 -10 -3 -5 1 -10 11 -10 9 0 22 -7 28 -16 6 -8 20 -17 31 -18 11 -2 19
-9 17 -15 -3 -15 15 -14 21 2 3 7 6 5 6 -5 1 -16 12 -23 34 -19 4 0 7 -3 7 -8
0 -5 9 -13 21 -16 11 -4 18 -9 15 -12 -5 -5 86 -54 104 -57 3 -1 16 -11 29
-23 13 -12 29 -19 35 -16 6 4 5 -1 -3 -10 -11 -15 -11 -17 1 -17 9 0 31 -11
51 -25 20 -13 39 -20 42 -15 3 5 23 -1 43 -14 20 -13 48 -27 62 -31 13 -4 30
-14 38 -21 7 -8 18 -12 23 -9 5 4 9 2 9 -3 0 -13 35 -52 47 -52 5 0 28 -16 50
-35 22 -19 43 -31 47 -28 3 3 6 1 6 -5 0 -7 6 -12 14 -12 7 0 19 -7 26 -15 7
-9 19 -14 27 -11 8 3 11 2 8 -4 -3 -5 10 -16 29 -25 31 -15 53 -52 47 -78 -1
-5 2 -6 7 -3 5 3 15 -4 22 -15 8 -10 20 -19 28 -19 7 0 15 -6 18 -14 3 -8 19
-18 35 -21 15 -4 50 -26 77 -50 27 -25 53 -41 56 -37 4 4 6 2 4 -5 -2 -6 2
-12 7 -13 6 -1 25 -15 43 -31 18 -16 36 -29 41 -29 4 0 35 -26 69 -58 42 -39
62 -66 62 -82 0 -13 3 -21 6 -17 7 7 134 -118 134 -132 0 -6 16 -13 35 -17 19
-3 35 -10 35 -15 0 -5 18 -28 40 -51 22 -24 40 -49 40 -55 0 -7 9 -13 21 -13
11 0 18 -4 14 -9 -6 -10 50 -73 57 -66 7 7 78 -64 78 -78 0 -7 9 -23 20 -35
11 -12 20 -26 20 -32 0 -6 7 -13 15 -16 8 -4 15 -12 15 -19 0 -7 13 -25 30
-38 19 -16 25 -27 17 -30 -6 -3 0 -6 15 -6 21 -1 33 -10 50 -39 13 -21 29 -47
36 -57 6 -11 20 -34 29 -52 9 -18 20 -30 25 -27 4 3 8 -1 8 -8 0 -7 18 -32 40
-55 21 -24 36 -43 32 -43 -4 0 0 -6 8 -13 8 -7 21 -24 29 -39 8 -16 16 -26 18
-24 9 9 62 -57 68 -84 5 -21 14 -30 35 -35 26 -6 46 -28 42 -47 -1 -5 3 -8 9
-8 5 0 8 -4 5 -9 -3 -4 3 -16 14 -26 11 -10 17 -22 14 -26 -3 -5 1 -12 9 -15
7 -2 14 -11 15 -19 1 -8 3 -22 4 -30 1 -8 4 -13 7 -11 3 2 12 -2 19 -10 7 -8
10 -14 7 -14 -3 0 1 -13 10 -30 9 -16 13 -30 10 -30 -6 0 24 -62 34 -70 33
-27 72 -120 50 -120 -8 0 -6 -7 4 -18 9 -10 28 -40 42 -66 14 -26 32 -55 40
-63 8 -8 15 -20 15 -27 0 -7 9 -21 20 -31 11 -10 20 -22 20 -27 0 -15 37 -58
43 -51 4 3 10 -3 14 -13 4 -10 13 -25 20 -32 7 -7 16 -25 20 -40 3 -15 15 -42
25 -60 15 -28 16 -33 3 -38 -13 -5 -13 -9 1 -35 8 -16 12 -29 10 -29 -7 0 17
-66 49 -136 15 -32 28 -63 29 -69 1 -5 18 -44 38 -85 20 -41 39 -85 43 -97 3
-13 12 -23 19 -23 8 0 20 -8 27 -17 12 -14 12 -16 -1 -9 -9 5 -8 2 2 -7 13
-10 15 -16 6 -25 -9 -9 -9 -12 1 -12 8 0 11 -6 7 -16 -3 -8 -2 -13 3 -10 8 6
23 -38 26 -80 1 -12 5 -26 9 -33 4 -6 0 -14 -8 -17 -16 -6 -12 -57 6 -81 5 -7
7 -17 3 -23 -3 -5 -1 -10 5 -10 6 0 9 -4 5 -9 -3 -5 -1 -12 5 -16 6 -4 8 -10
5 -15 -3 -5 -2 -17 3 -27 16 -32 33 -87 37 -120 2 -18 8 -41 14 -51 6 -11 8
-22 5 -25 -6 -6 17 -90 27 -97 4 -3 12 -41 18 -85 16 -112 17 -115 34 -165 9
-25 21 -81 28 -125 9 -58 18 -85 33 -97 12 -10 16 -18 10 -18 -7 0 -9 -11 -6
-25 2 -14 8 -23 11 -20 4 2 8 -1 8 -8 1 -7 2 -23 4 -37 1 -14 1 -29 -1 -35 -7
-28 1 -86 11 -79 8 4 8 1 1 -13 -6 -11 -7 -25 -2 -33 4 -7 6 -23 3 -34 -9 -38
-4 -117 9 -133 6 -8 3 -17 -10 -29 -11 -9 -19 -22 -17 -28 11 -31 29 -275 28
-368 0 -57 3 -78 12 -78 10 0 12 -14 8 -53 -2 -28 -6 -68 -7 -88 -2 -20 -6
-41 -10 -48 -4 -6 -4 -16 0 -22 9 -15 11 -148 2 -143 -4 3 -5 -20 -4 -50 3
-47 1 -56 -15 -61 -11 -4 -19 -9 -19 -13 -2 -33 -14 -91 -22 -106 -7 -14 -7
-17 2 -11 9 6 9 2 0 -15 -12 -22 -8 -107 6 -143 3 -8 -2 -21 -10 -30 -8 -8
-14 -23 -12 -33 2 -11 5 -23 6 -29 1 -5 1 -12 0 -15 -2 -3 -4 -27 -6 -55 -1
-27 -5 -66 -8 -85 -3 -19 -8 -53 -11 -75 -9 -72 -16 -94 -34 -100 -14 -4 -19
-25 -28 -108 -13 -120 -16 -131 -30 -148 -5 -8 -10 -26 -9 -41 1 -14 -2 -24
-6 -22 -4 3 -9 -1 -10 -8 -5 -48 -29 -122 -42 -133 -11 -10 -42 -82 -51 -121
-14 -62 -59 -199 -75 -226 -6 -10 -10 -25 -10 -34 0 -8 -12 -31 -26 -50 -18
-23 -22 -34 -13 -34 10 -1 9 -4 -3 -10 -9 -6 -26 -36 -38 -68 -12 -31 -27 -66
-34 -77 -17 -27 -30 -75 -27 -103 2 -13 -2 -28 -7 -35 -5 -7 -9 -24 -8 -39 1
-14 -2 -24 -6 -22 -4 3 -8 2 -9 -3 -3 -31 -10 -49 -23 -59 -9 -6 -13 -14 -9
-17 3 -4 0 -14 -8 -24 -12 -15 -12 -16 1 -8 8 4 6 -1 -5 -12 -11 -11 -24 -19
-30 -17 -5 2 -25 -27 -43 -65 -18 -38 -46 -86 -62 -107 -32 -39 -37 -54 -19
-54 6 0 5 -6 -3 -14 -8 -7 -22 -33 -33 -57 -11 -24 -26 -49 -33 -54 -12 -10
-19 -31 -21 -65 -1 -12 -3 -12 -10 -2 -6 10 -11 2 -16 -25 -5 -21 -9 -42 -9
-48 -1 -5 -6 -10 -13 -10 -6 0 -15 -3 -19 -8 -4 -4 -1 -7 6 -7 9 0 6 -8 -8
-23 -12 -13 -19 -27 -15 -30 3 -4 2 -7 -3 -7 -5 0 -10 -10 -11 -22 -1 -13 -13
-31 -27 -41 -15 -10 -23 -24 -19 -32 3 -9 -1 -15 -10 -15 -21 0 -61 -49 -91
-115 -15 -30 -47 -78 -71 -105 -25 -28 -45 -57 -45 -64 0 -7 -13 -27 -29 -44
-27 -28 -40 -47 -79 -118 -7 -13 -19 -24 -26 -24 -7 0 -27 -19 -44 -42 -17
-24 -41 -55 -54 -69 -13 -15 -39 -46 -58 -69 -19 -23 -43 -51 -52 -63 -10 -11
-18 -25 -18 -32 0 -17 -35 -46 -45 -38 -4 5 -5 3 -2 -3 4 -7 0 -15 -9 -18 -8
-3 -12 -10 -9 -16 3 -5 0 -10 -7 -10 -14 0 -62 -49 -71 -72 -2 -7 -17 -20 -33
-28 -34 -16 -123 -109 -124 -127 0 -7 -4 -13 -9 -13 -4 0 -23 -15 -42 -34 -18
-19 -37 -32 -41 -30 -4 3 -8 -2 -8 -11 0 -8 -7 -18 -15 -21 -8 -4 -12 -10 -9
-15 5 -8 -9 -13 -27 -11 -4 1 -14 -13 -23 -31 -8 -18 -16 -28 -16 -22 0 5 -25
-17 -55 -50 -30 -32 -55 -55 -55 -51 0 4 -15 -6 -32 -22 -120 -111 -204 -182
-215 -182 -6 0 -18 -9 -28 -20 -10 -11 -22 -17 -26 -14 -5 3 -9 1 -9 -4 0 -5
-33 -26 -72 -47 -40 -20 -82 -46 -94 -56 -11 -10 -24 -19 -28 -19 -5 0 -37
-20 -71 -44 -35 -24 -73 -47 -84 -51 -12 -3 -21 -11 -21 -16 0 -5 -16 -19 -35
-30 -19 -12 -35 -27 -35 -35 0 -8 -6 -14 -14 -14 -7 0 -21 -10 -30 -23 -9 -12
-14 -16 -11 -9 3 6 1 12 -4 12 -6 0 -11 -3 -11 -8 0 -4 -17 -16 -37 -27 -21
-11 -69 -38 -108 -60 -38 -23 -86 -47 -105 -55 -19 -7 -40 -17 -46 -22 -7 -5
-40 -22 -75 -39 -35 -17 -70 -39 -79 -49 -19 -22 -96 -61 -104 -53 -3 4 -6 1
-6 -6 0 -6 -12 -16 -26 -21 -16 -6 -23 -14 -18 -22 4 -7 4 -10 0 -6 -4 3 -30
-5 -58 -19 -27 -14 -57 -27 -67 -28 -9 -2 -17 -4 -18 -5 -4 -3 -12 -5 -60 -14
-24 -4 -43 -12 -43 -16 0 -5 -16 -12 -36 -16 -22 -4 -38 -14 -41 -24 -4 -16
-47 -36 -101 -47 -41 -8 -57 -11 -59 -13 -2 -2 -6 -3 -10 -4 -5 -1 -13 -5 -20
-9 -6 -4 -24 -8 -40 -9 -15 -1 -39 -8 -52 -15 -14 -6 -28 -10 -33 -7 -4 3 -8
0 -8 -6 0 -6 -6 -10 -12 -9 -17 3 -46 -10 -80 -33 -16 -11 -36 -17 -45 -14
-10 3 -31 -1 -47 -9 -15 -8 -37 -15 -48 -15 -11 0 -28 -5 -38 -10 -10 -6 -30
-11 -44 -12 -15 -1 -26 -6 -26 -10 0 -4 -13 -8 -29 -8 -17 0 -33 -5 -36 -10
-4 -6 -11 -8 -16 -5 -5 4 -15 3 -21 -2 -7 -4 -23 -9 -35 -11 -12 -1 -41 -9
-64 -17 -22 -8 -45 -12 -50 -10 -4 3 -14 -3 -21 -15 -8 -12 -23 -20 -40 -20
-15 0 -29 -4 -32 -9 -3 -5 -16 -9 -28 -9 -55 -1 -132 -13 -235 -36 -72 -16
-125 -23 -149 -19 -33 5 -37 4 -31 -12 5 -13 3 -16 -8 -11 -8 3 -15 1 -15 -4
0 -5 -24 -9 -52 -9 -125 0 -248 -7 -248 -13 0 -4 -11 -5 -25 -2 -14 2 -25 0
-25 -5 0 -5 -11 -8 -25 -7 -14 0 -25 4 -25 7 0 4 -13 9 -29 11 -17 2 -28 1
-26 -2 2 -4 -8 -7 -23 -7 -37 0 -142 -12 -196 -22 -24 -4 -49 -5 -54 -2 -19
11 -142 0 -142 -13 0 -9 -20 -11 -72 -9 -40 2 -79 6 -85 8 -7 2 -13 0 -13 -6
0 -6 -5 -7 -11 -3 -14 8 -109 15 -196 14 -39 0 -63 3 -63 10 0 6 -4 9 -9 5 -6
-3 -13 0 -18 7 -4 7 -17 14 -28 15 -20 2 -86 11 -115 16 -8 1 -19 5 -25 8 -5
3 -46 6 -90 7 -120 3 -225 13 -225 22 0 9 -64 20 -148 26 -35 2 -71 8 -80 13
-9 4 -22 6 -29 4 -6 -2 -14 0 -17 6 -3 5 -15 7 -26 4 -11 -3 -26 0 -34 6 -8 6
-27 13 -44 14 -16 1 -28 5 -26 9 3 4 -21 7 -53 7 -71 1 -87 4 -105 19 -8 6
-18 9 -21 6 -5 -5 -77 14 -127 33 -8 4 -17 7 -20 8 -3 1 -12 5 -20 8 -8 4 -24
8 -35 10 -11 2 -37 11 -57 21 -21 9 -47 18 -60 19 -12 2 -24 9 -26 15 -2 6
-19 14 -38 18 -19 3 -34 10 -34 14 0 5 -8 7 -17 6 -10 -2 -32 3 -50 11 -18 7
-44 13 -58 13 -14 0 -53 11 -86 25 -32 14 -72 27 -87 29 -15 1 -38 8 -51 15
-13 7 -34 11 -47 8 -16 -3 -30 4 -45 19 -12 13 -26 21 -30 18 -5 -3 -9 0 -9 6
0 7 -7 9 -16 6 -8 -3 -12 -2 -9 4 3 5 -6 12 -20 16 -20 5 -23 9 -14 20 9 11 8
14 -5 14 -9 0 -28 7 -41 16 -14 9 -25 13 -25 9 0 -3 -13 3 -30 15 -16 12 -30
19 -30 15 0 -3 -10 0 -22 7 -13 7 -26 12 -30 13 -3 0 -10 3 -14 7 -4 5 -14 8
-23 8 -9 0 -37 11 -63 25 -31 17 -48 21 -50 13 -3 -7 -12 -4 -26 10 -12 12
-26 22 -30 22 -14 0 -90 39 -97 50 -4 6 -11 8 -16 5 -5 -4 -9 -1 -9 5 0 6 -4
8 -10 5 -5 -3 -10 -2 -10 3 0 6 -10 12 -23 16 -13 3 -34 14 -46 26 -13 11 -28
17 -32 14 -5 -3 -9 0 -9 6 0 6 -4 8 -10 5 -5 -3 -10 -1 -10 6 0 7 -3 9 -6 6
-4 -4 -19 2 -34 13 -16 11 -33 20 -39 20 -6 0 -11 5 -11 10 0 6 -9 10 -21 10
-11 0 -18 4 -15 8 10 16 -33 71 -61 78 -36 8 -113 52 -113 64 0 6 -4 10 -9 10
-5 0 -27 12 -49 26 -22 15 -44 26 -48 24 -4 -1 -10 3 -13 9 -6 9 -59 40 -148
87 -18 10 -37 30 -44 46 -6 15 -17 28 -23 28 -6 0 -26 14 -43 31 -18 16 -33
25 -33 19 0 -6 -32 21 -70 59 -39 39 -77 71 -85 71 -8 0 -15 5 -15 10 0 6 -7
10 -15 10 -9 0 -18 7 -21 15 -4 8 -11 15 -18 15 -6 0 -34 23 -61 50 -27 28
-55 50 -62 50 -7 0 -13 8 -13 18 -1 18 -23 52 -34 52 -4 0 -19 13 -32 30 -14
16 -29 29 -33 27 -4 -1 -50 41 -102 94 -52 53 -105 100 -119 104 -30 9 -50 29
-50 48 0 14 -22 38 -79 87 -13 11 -21 20 -16 20 4 0 3 6 -2 13 -6 6 -13 23
-17 37 -5 22 -29 52 -128 160 -12 14 -23 30 -24 35 0 6 -2 16 -2 23 -1 6 -9
12 -17 12 -8 0 -15 5 -15 10 0 6 -11 15 -24 19 -22 9 -95 91 -81 91 4 0 -14
20 -39 45 -26 25 -41 45 -34 46 7 0 1 5 -13 10 -14 5 -32 21 -39 34 -7 13 -17
22 -21 19 -5 -3 -11 7 -14 21 -3 14 -7 36 -10 49 -3 14 -12 32 -21 40 -8 9
-12 16 -8 16 4 0 -1 6 -12 14 -10 8 -19 18 -19 23 -2 20 -17 53 -25 53 -5 0
-19 10 -32 23 -26 25 -63 87 -52 87 4 0 -1 9 -11 20 -9 10 -15 26 -11 35 3 9
2 13 -4 10 -6 -3 -10 1 -10 9 0 8 -11 27 -25 42 -14 15 -24 33 -21 41 3 7 0
15 -6 19 -7 4 -8 3 -4 -4 4 -7 5 -12 2 -12 -2 0 -15 20 -27 45 -12 25 -26 45
-31 45 -4 0 -8 5 -8 11 0 5 5 7 11 3 8 -5 8 -1 0 14 -6 12 -19 25 -27 30 -9 5
-17 23 -18 40 0 17 -5 30 -11 29 -5 -1 -9 6 -7 15 2 10 -3 18 -9 18 -7 0 -10
3 -6 6 3 3 -8 27 -24 54 -16 26 -29 52 -29 58 0 6 -5 14 -11 17 -6 4 -10 1 -8
-6 3 -25 -1 -39 -11 -39 -5 0 -10 11 -10 23 0 13 -3 27 -7 31 -5 4 -8 11 -9
14 0 4 -13 33 -28 65 -14 32 -24 62 -21 67 3 4 -2 13 -10 20 -8 7 -12 16 -9
21 3 5 0 9 -6 9 -6 0 -10 8 -9 18 2 9 -2 27 -9 40 -8 14 -9 22 -2 22 15 0 12
16 -12 68 -12 26 -21 50 -20 55 1 4 -2 7 -8 7 -5 0 -10 4 -10 9 0 5 -7 25 -15
45 -8 20 -15 38 -15 41 0 3 -12 25 -25 50 -14 24 -24 48 -24 52 3 12 -12 46
-29 66 -8 9 -12 17 -9 17 4 0 -1 21 -11 48 -10 26 -18 54 -17 62 1 8 -2 20 -6
25 -4 6 -7 13 -7 18 -1 15 -15 72 -20 82 -6 10 -8 15 -10 47 -1 9 -11 20 -23
23 -11 4 -18 12 -16 18 2 7 -1 21 -6 32 -6 11 -12 27 -13 35 -2 8 -7 16 -13
18 -5 2 -7 10 -4 19 4 11 2 14 -5 9 -8 -5 -10 -2 -6 8 4 9 1 16 -6 16 -9 0 -9
4 1 18 7 9 9 13 4 9 -6 -6 -14 28 -21 90 -7 54 -14 107 -17 118 -3 11 -6 31
-6 43 -1 15 -8 26 -20 29 -20 5 -25 28 -35 173 -5 69 -8 83 -21 114 -6 13 -4
21 4 24 10 3 11 6 1 12 -8 5 -13 46 -15 126 -1 66 -8 132 -14 147 -6 16 -11
44 -11 64 0 22 -6 41 -16 48 -12 9 -18 34 -21 101 -2 49 -4 98 -4 109 3 177 8
255 16 255 12 0 12 171 1 212 -4 15 -4 33 0 40 5 7 10 38 11 68 1 30 6 74 11
98 8 35 7 45 -5 49 -11 4 -13 25 -8 112 3 58 8 150 10 205 4 100 20 156 42
156 11 0 20 66 14 103 0 4 2 7 6 7 5 0 8 10 9 23 1 18 8 61 18 102 3 12 25 64
37 87 5 10 9 37 9 60 0 23 9 72 19 108 20 67 42 172 44 203 1 9 4 17 8 17 4 0
9 12 12 28 14 66 32 122 40 122 4 0 6 4 3 9 -4 5 -2 21 4 36 8 20 7 27 -5 32
-10 3 -12 10 -7 17 4 6 8 23 7 39 0 15 2 27 6 27 4 0 13 23 20 50 7 28 16 50
21 50 4 0 8 5 8 11 0 5 -4 8 -9 5 -5 -4 -7 3 -4 14 3 11 14 20 24 20 21 0 28
10 31 43 1 14 5 24 8 22 3 -2 12 11 19 28 8 18 20 40 28 49 8 9 13 23 11 30
-3 7 6 32 19 55 13 24 23 44 23 45 -2 3 15 49 34 98 19 46 27 98 17 102 -5 2
2 26 15 53 13 28 23 56 24 63 0 6 5 12 10 12 6 0 10 9 10 20 0 11 4 20 10 20
5 0 9 3 8 8 -3 16 15 44 22 33 7 -12 12 -3 45 71 10 21 21 35 26 32 5 -3 9 4
9 15 0 12 4 21 9 21 5 0 13 10 16 23 4 12 17 38 29 57 11 19 19 41 18 48 -2 8
4 23 14 33 9 10 13 19 8 19 -5 0 -1 5 9 11 9 6 15 14 12 20 -4 5 -2 9 3 9 7 0
33 41 37 60 0 3 15 34 33 70 18 36 32 71 32 78 0 7 7 15 15 18 8 4 15 14 15
24 0 10 7 23 15 30 8 7 15 16 15 21 0 13 44 53 73 66 20 9 28 22 33 51 4 29
20 53 57 93 29 29 63 69 76 89 13 19 32 41 42 48 11 7 19 18 19 23 0 5 5 15
10 22 41 48 50 62 50 73 0 18 49 74 66 74 7 0 18 8 23 19 6 10 35 45 65 77 30
32 57 72 60 88 6 26 109 140 118 131 2 -2 12 9 23 26 11 16 25 29 30 29 6 0
21 16 35 35 14 19 41 42 60 52 18 10 48 33 65 51 16 18 56 60 88 92 31 32 57
64 57 72 1 17 59 79 91 96 14 8 41 27 59 42 19 16 36 28 38 26 1 -2 25 18 53
45 32 31 62 50 84 55 19 3 32 10 29 15 -3 5 2 9 11 9 20 0 91 68 99 95 6 20
104 92 119 87 4 -1 7 3 7 8 0 6 5 10 11 10 6 0 20 10 31 23 11 12 16 15 12 7
-4 -8 4 -5 18 8 13 12 27 20 29 18 3 -3 25 13 49 34 25 22 51 38 58 35 7 -3
10 -1 7 5 -3 5 17 19 45 31 28 12 54 29 59 37 7 13 12 13 23 4 11 -9 18 -7 31
8 9 11 23 20 32 20 8 0 12 6 9 13 -2 7 4 22 16 32 11 10 20 14 20 10 0 -4 8
-2 18 6 9 8 28 20 41 27 13 8 38 22 56 32 18 10 36 16 39 13 3 -4 6 -1 6 5 0
7 9 12 20 12 11 0 20 4 20 8 0 5 18 17 40 27 22 10 40 22 40 27 0 5 4 7 9 3 5
-3 17 2 25 11 9 8 16 12 16 7 0 -4 5 -1 10 7 7 12 12 12 21 3 10 -10 17 -9 32
5 10 9 22 16 26 16 3 -1 16 2 29 7 13 5 29 9 36 9 6 0 16 4 22 9 7 7 146 63
164 66 3 1 30 13 60 27 30 15 63 29 73 32 11 4 21 15 24 26 3 11 10 20 15 20
5 0 7 4 4 8 -2 4 5 9 17 9 12 1 42 5 67 9 25 4 48 7 53 6 4 -1 7 3 7 9 0 5 4
8 9 4 5 -3 12 -1 16 5 4 6 11 8 16 5 5 -4 9 -1 9 4 0 6 13 11 29 11 16 0 34 7
41 15 7 8 16 13 20 10 8 -5 93 20 122 35 10 6 25 7 34 3 11 -4 15 -2 11 4 -10
15 14 32 54 37 19 3 45 8 59 11 14 4 31 7 38 7 6 1 12 4 12 7 0 3 17 7 37 8
20 1 39 6 42 12 4 6 25 13 46 17 22 3 50 12 61 19 12 8 31 11 43 8 11 -3 21
-1 21 5 0 12 59 22 66 11 2 -4 18 -4 34 1 17 5 30 7 30 5 0 -3 12 0 26 5 14 6
40 12 57 15 67 10 103 16 117 21 8 3 49 8 90 11 77 6 120 17 120 30 0 5 19 8
43 9 39 0 113 8 162 18 49 9 123 19 160 21 22 1 49 5 61 9 13 4 26 1 33 -8 9
-10 21 -12 48 -6 20 5 46 4 60 -1 13 -5 22 -5 19 -1 -3 5 51 9 120 10 69 1
130 4 136 8 7 5 8 2 3 -6 -6 -9 -2 -10 16 -4 13 4 34 7 47 6 14 -1 22 4 22 14
0 8 5 12 10 9 6 -4 63 -9 128 -12z m-6241 -4833 c-2 -11 -6 -22 -9 -26 -4 -3
-5 2 -3 13 2 10 4 21 4 26 1 4 3 7 6 7 3 0 4 -9 2 -20z m19102 -7541 c58 -165
198 -301 374 -364 64 -24 81 -41 50 -51 -153 -53 -233 -103 -306 -191 -60 -71
-94 -129 -123 -207 -12 -33 -27 -61 -34 -61 -7 0 -22 28 -35 62 -63 174 -202
315 -370 376 -38 13 -70 30 -70 37 0 7 23 21 50 30 122 42 222 111 292 201 40
52 103 167 103 188 0 23 21 62 31 59 7 -2 24 -38 38 -79z"/>
<path d="M13675 13530 c-703 -51 -1368 -217 -2010 -505 -829 -370 -1600 -969
-2169 -1685 -632 -795 -1051 -1729 -1211 -2703 -83 -503 -98 -1121 -39 -1637
100 -886 420 -1759 928 -2530 806 -1222 2062 -2119 3464 -2474 488 -123 811
-165 1338 -173 371 -6 565 3 844 37 610 76 1246 265 1795 535 599 294 1104
650 1574 1110 485 474 856 985 1160 1595 340 684 537 1405 591 2162 13 189 13
638 0 826 -69 972 -369 1887 -888 2707 -257 408 -521 735 -858 1065 -462 452
-944 796 -1509 1075 -650 321 -1279 501 -2030 580 -176 19 -795 28 -980 15z
m295 -998 c247 -58 417 -157 527 -308 98 -135 146 -191 139 -162 -3 14 -8 33
-12 41 -7 20 82 36 238 44 196 10 383 -26 555 -107 197 -92 331 -210 513 -451
141 -185 186 -227 288 -269 156 -63 222 -101 277 -157 100 -101 134 -207 135
-419 0 -91 16 -158 55 -234 28 -54 94 -119 211 -206 61 -46 129 -103 152 -128
90 -98 146 -216 158 -335 7 -65 2 -72 -62 -84 -30 -6 -32 -4 -49 41 -56 148
-177 258 -400 362 -62 29 -123 66 -151 92 -36 33 -44 37 -34 18 37 -71 89
-112 260 -210 129 -74 305 -275 286 -327 -5 -13 -17 -14 -64 -9 -31 4 -81 13
-110 20 -71 19 -57 4 31 -33 170 -70 356 -40 474 79 l42 41 8 -38 c12 -60 9
-233 -6 -293 -36 -147 -127 -263 -253 -324 -79 -38 -180 -66 -240 -66 -56 0
-53 -15 7 -38 133 -51 292 -53 430 -7 43 14 79 24 81 23 7 -7 -58 -123 -92
-165 -55 -67 -131 -118 -184 -123 -266 -27 -509 39 -665 182 -106 98 -200 246
-241 384 -23 74 -31 43 -14 -54 23 -131 98 -267 207 -374 73 -72 156 -122 258
-155 108 -35 280 -38 400 -5 43 11 81 19 84 17 6 -7 -115 -60 -194 -85 -96
-30 -246 -37 -345 -16 -189 40 -364 175 -449 346 -37 74 -42 80 -36 45 3 -22
26 -81 50 -131 73 -150 207 -266 365 -315 178 -55 378 -46 513 23 38 19 38 19
28 0 -31 -58 -138 -120 -265 -153 -90 -24 -242 -25 -317 -3 -220 64 -423 311
-518 630 -58 195 -74 293 -70 429 2 72 3 204 3 295 0 174 0 176 -68 355 -4 11
17 -6 48 -37 71 -74 133 -201 183 -370 21 -70 39 -125 41 -123 7 6 -17 159
-40 260 -39 174 -132 329 -257 430 -79 64 -162 110 -296 165 -55 23 -145 65
-200 93 -147 75 -245 176 -400 412 -138 209 -215 292 -323 349 -58 30 -72 41
-66 54 38 91 47 143 48 262 1 82 -3 132 -11 145 -11 17 -12 11 -13 -45 -1
-201 -116 -410 -290 -525 -103 -69 -166 -88 -280 -88 -115 -1 -246 25 -473 93
-200 59 -326 77 -432 61 -135 -20 -251 -73 -339 -154 -41 -39 -41 -39 -6 -17
132 81 257 120 393 120 108 0 203 -22 393 -91 90 -32 169 -59 176 -59 7 0 20
-5 28 -11 18 -12 -103 -4 -235 17 -196 31 -396 13 -542 -48 -200 -83 -311
-213 -379 -447 -33 -113 -30 -145 5 -46 35 101 58 145 116 223 113 150 278
236 502 262 129 15 158 9 68 -14 -93 -23 -235 -92 -314 -151 -35 -27 -88 -78
-118 -114 -94 -114 -127 -198 -202 -516 -39 -166 -85 -261 -162 -336 -56 -55
-150 -110 -214 -125 l-30 -7 37 41 c47 52 72 102 87 170 24 113 8 219 -63 432
-54 161 -69 269 -57 390 11 106 44 234 81 323 16 37 27 67 25 67 -10 0 -103
-183 -132 -260 l-32 -85 -96 -42 c-160 -70 -308 -179 -389 -285 -15 -20 -43
-65 -62 -100 l-35 -63 4 135 c5 147 25 245 77 376 65 163 126 263 249 409 l76
90 -55 -45 c-189 -156 -321 -362 -381 -592 -46 -183 -46 -375 2 -583 29 -122
35 -129 43 -51 9 86 48 212 94 299 39 76 141 191 236 266 68 55 204 141 221
141 6 0 9 -29 7 -79 l-3 -79 -77 -45 c-151 -88 -284 -240 -331 -378 -12 -35
-26 -100 -32 -144 -10 -87 -1 -240 12 -195 4 14 7 43 8 66 2 69 39 195 86 291
52 106 159 228 246 280 89 53 97 50 31 -11 -73 -69 -159 -194 -195 -286 -31
-79 -54 -197 -62 -310 -6 -81 -3 -133 26 -413 10 -91 10 -146 1 -235 -22 -231
-59 -323 -269 -670 -99 -163 -132 -248 -139 -356 -5 -89 -2 -87 41 36 15 42
41 101 59 130 67 108 195 311 200 316 18 18 -37 -383 -65 -475 -48 -153 -101
-222 -237 -302 -94 -56 -155 -111 -181 -163 l-21 -43 3 91 c3 79 7 99 38 165
20 41 53 96 73 122 21 27 35 51 32 54 -11 11 -88 -61 -132 -123 -60 -85 -86
-160 -86 -254 -1 -74 -1 -75 -15 -41 -21 51 -28 161 -14 233 7 35 28 100 48
145 l35 82 -80 78 c-52 52 -88 97 -105 133 -70 151 -57 372 32 522 l32 53 -31
-35 c-38 -43 -125 -218 -141 -283 -7 -28 -10 -86 -7 -140 4 -75 11 -105 36
-160 l31 -68 -37 22 c-129 77 -253 204 -308 313 -34 70 -38 85 -42 180 -7 152
30 290 109 410 15 23 10 19 -22 -14 -88 -94 -149 -214 -149 -294 0 -17 -4 -37
-9 -45 -16 -25 -24 131 -11 206 14 85 84 236 136 293 22 24 35 41 29 39 -51
-22 -193 -100 -243 -135 -71 -50 -74 -44 -23 51 59 113 202 215 374 266 186
55 319 166 401 335 59 120 77 201 82 364 2 80 6 179 8 220 5 109 -10 54 -24
-86 -30 -310 -89 -465 -235 -609 -72 -72 -156 -118 -261 -145 -94 -24 -115
-25 -185 -4 -39 12 -67 29 -101 64 -27 26 -48 52 -48 58 0 6 24 2 61 -9 142
-44 298 0 407 115 107 113 131 202 142 531 11 316 25 393 93 530 59 120 141
204 324 333 116 82 140 112 212 265 112 240 265 403 476 510 163 81 282 109
555 127 183 12 278 25 380 50 78 19 194 59 188 65 -2 2 -49 -3 -104 -10 -99
-14 -356 -35 -362 -30 -7 6 128 75 213 108 112 44 215 73 331 92 128 21 429
13 544 -13z m673 -1225 c83 -54 166 -150 279 -322 124 -189 186 -265 278 -338
71 -57 215 -135 335 -182 145 -57 183 -81 222 -143 43 -67 95 -186 120 -275
14 -51 17 -92 14 -222 -9 -358 -6 -434 18 -550 13 -60 47 -184 77 -275 94
-292 118 -432 119 -690 0 -250 -15 -304 -187 -680 -67 -147 -208 -505 -208
-528 0 -4 22 36 49 88 65 126 134 241 128 210 -3 -14 -27 -137 -52 -275 -115
-623 -141 -730 -232 -959 -65 -166 -91 -220 -146 -301 -41 -61 -181 -205 -238
-246 l-31 -22 25 40 c56 88 164 323 149 323 -4 0 -22 -26 -41 -58 -244 -406
-411 -572 -664 -658 -146 -50 -474 -81 -758 -71 -235 8 -355 37 -494 119 -165
97 -268 205 -420 437 -83 127 -330 533 -338 555 -3 6 -7 8 -11 5 -7 -7 80
-187 150 -310 26 -46 86 -159 134 -251 l87 -167 -59 46 c-186 146 -314 336
-437 645 -60 154 -75 201 -160 540 -39 150 -81 311 -95 358 -14 46 -24 86 -22
88 2 1 31 -38 66 -88 71 -105 128 -222 162 -332 12 -43 26 -78 29 -78 9 0 -26
147 -57 239 -32 98 -127 291 -249 506 -225 398 -269 518 -281 775 -11 223 33
661 87 873 11 43 25 128 31 187 12 109 10 140 -23 435 -32 291 33 546 182 709
l62 67 44 -138 c72 -223 69 -333 -13 -446 -44 -61 -102 -103 -173 -124 -76
-23 -81 -30 -36 -49 163 -68 382 -11 529 139 107 108 148 204 210 483 48 216
89 299 200 409 159 158 351 224 759 261 204 18 411 54 489 83 74 28 191 106
247 164 50 52 54 52 144 -6z m1622 -2722 c126 -123 235 -174 395 -182 139 -6
135 -4 158 -70 41 -114 36 -185 -18 -301 -31 -67 -44 -72 -55 -21 -11 47 -100
133 -160 154 -153 55 -198 79 -262 138 -95 89 -121 142 -162 332 l-19 90 26
-35 c14 -19 58 -66 97 -105z m2 -557 c8 -101 -8 -173 -62 -284 l-43 -89 -1 42
c-1 22 10 118 24 213 14 95 25 211 26 258 l1 87 25 -75 c14 -41 27 -110 30
-152z m57 75 c-14 -62 -24 -79 -24 -41 0 23 -23 104 -45 163 -5 12 9 4 37 -23
l45 -43 -13 -56z m-4544 -50 c-14 -115 -18 -291 -7 -358 6 -37 4 -35 -28 29
-48 97 -61 160 -46 233 11 58 80 217 89 208 3 -2 -1 -53 -8 -112z m4680 -5 c0
-24 -12 -90 -26 -148 -14 -58 -36 -179 -50 -270 -30 -205 -46 -258 -96 -315
-42 -47 -91 -69 -143 -63 -28 3 -30 6 -33 52 -4 60 14 179 32 214 8 15 45 62
83 105 141 162 155 189 173 332 11 91 26 135 46 135 10 0 14 -13 14 -42z
m-4570 -233 c27 -101 84 -404 77 -411 -7 -7 -89 143 -107 195 -25 76 -40 201
-39 336 l0 110 20 -60 c10 -33 33 -109 49 -170z m-246 -97 c53 -109 80 -151
151 -233 85 -99 139 -190 166 -283 15 -51 8 -61 -49 -69 -57 -8 -86 2 -133 44
-62 57 -87 117 -129 317 -21 100 -47 215 -59 256 -21 74 -25 100 -16 100 2 0
33 -60 69 -132z m4420 -138 c-18 -113 -40 -268 -49 -345 -30 -280 -36 -322
-61 -418 -13 -54 -38 -131 -54 -172 -33 -83 -159 -339 -165 -334 -2 2 10 54
26 114 37 142 81 357 114 565 39 248 71 408 101 501 26 83 114 303 119 297 2
-2 -12 -95 -31 -208z m-3909 -387 c20 -62 69 -244 110 -405 40 -161 93 -355
118 -430 25 -76 44 -138 42 -138 -7 0 -86 132 -124 208 -55 110 -88 210 -160
492 -49 194 -104 483 -100 533 2 25 80 -152 114 -260z m3737 -998 c-39 -158
-167 -388 -316 -565 -160 -192 -305 -326 -526 -490 -328 -242 -770 -448 -1148
-534 -48 -11 -64 -12 -68 -3 -6 17 -52 262 -50 264 1 2 56 12 122 23 475 81
816 224 1162 485 295 222 468 402 538 562 14 31 54 100 89 152 35 53 94 155
132 226 l68 130 9 -83 c8 -71 6 -96 -12 -167z m-3306 -348 c14 -27 36 -87 50
-135 38 -132 130 -357 186 -457 109 -193 184 -289 402 -512 71 -73 125 -133
119 -133 -14 0 -166 53 -256 89 -183 73 -580 281 -629 329 -27 27 -42 174 -35
357 8 201 38 353 98 493 22 51 22 52 65 -31z m485 -583 c46 -59 46 -59 21 -61
-15 0 -28 -6 -30 -12 -2 -6 -10 -11 -18 -11 -8 0 -14 -5 -14 -11 0 -5 -4 -7
-10 -4 -21 13 -30 -6 -14 -33 l16 -27 -21 25 c-11 14 -19 31 -16 38 3 7 0 10
-5 7 -11 -7 -64 94 -91 174 -23 65 -23 70 -4 45 8 -10 15 -14 15 -9 0 6 4 4 9
-4 9 -14 31 -7 31 10 0 14 -81 99 -90 94 -4 -3 -10 5 -13 18 -7 25 161 -145
234 -239z m174 -2 c-2 -3 -11 1 -19 7 -17 14 -28 1 -20 -26 3 -10 -6 2 -20 27
-14 25 -25 48 -26 52 0 4 20 -7 45 -24 25 -17 43 -34 40 -36z m74 -39 c2 -2 0
-3 -6 -3 -6 0 -21 9 -34 21 l-24 20 30 -17 c17 -10 32 -19 34 -21z m-178 -50
c13 -16 12 -17 -3 -4 -10 7 -18 15 -18 17 0 8 8 3 21 -13z m356 -46 c-8 -6 -7
-7 5 -3 9 3 60 -6 113 -19 53 -14 139 -28 191 -31 52 -4 94 -10 94 -15 0 -4
-10 -5 -22 -2 -13 3 -20 2 -16 -2 4 -4 0 -14 -10 -22 -16 -12 -16 -13 1 -7 9
3 17 1 17 -5 0 -6 -6 -11 -14 -11 -8 0 -17 -3 -19 -8 -3 -4 22 -6 55 -5 33 1
58 0 56 -2 -4 -4 -243 -45 -262 -45 -7 0 -4 -42 10 -120 3 -19 2 -21 -4 -6
-10 23 -65 47 -83 36 -8 -5 -18 -2 -26 8 -13 15 -13 15 -8 -5 4 -15 2 -23 -5
-23 -8 0 -10 -9 -7 -22 6 -22 6 -22 -8 -4 -8 11 -15 29 -15 39 0 16 -2 17 -15
7 -11 -9 -12 -15 -5 -20 16 -10 2 -36 -20 -37 -11 -1 -20 2 -20 8 0 5 -5 9
-11 9 -5 0 -8 -4 -4 -9 7 -12 -7 -21 -41 -27 -16 -3 -23 -1 -19 6 3 6 0 7 -9
4 -9 -3 -13 -10 -10 -15 3 -5 -4 -9 -15 -9 -11 0 -23 -5 -27 -12 -5 -7 -2 -8
7 -3 8 5 11 4 6 0 -4 -5 14 -32 40 -59 26 -28 -3 -1 -65 59 -104 101 -246 255
-194 211 27 -24 62 -27 81 -9 7 8 19 12 26 9 10 -4 11 2 5 25 -5 16 -7 29 -6
29 1 0 31 -43 67 -95 53 -80 79 -109 79 -92 0 2 -27 61 -61 132 -33 70 -58
129 -56 131 2 2 12 -14 22 -36 10 -22 22 -37 28 -33 6 4 7 1 2 -7 -6 -10 -4
-12 8 -7 10 4 17 1 17 -6 1 -7 5 -6 13 4 7 9 20 15 30 13 13 -2 16 2 12 16 -6
20 26 45 40 32 5 -4 5 -1 0 7 -5 9 0 20 16 32 24 18 24 18 4 33 -18 14 -18 14
12 4 23 -9 29 -15 20 -21z m708 -68 c-18 -5 -33 -5 -39 1 -7 7 4 10 30 9 39
-1 39 -1 9 -10z m-498 -291 c-3 -8 -6 -5 -6 6 -1 11 2 17 5 13 3 -3 4 -12 1
-19z m20 -110 c-3 -8 -6 -5 -6 6 -1 11 2 17 5 13 3 -3 4 -12 1 -19z m-214 -41
c6 3 7 1 3 -5 -4 -7 -1 -12 8 -12 9 0 16 4 16 8 0 4 21 9 48 10 26 2 61 4 77
5 17 2 33 -2 37 -8 5 -6 8 -6 8 3 0 6 7 12 16 12 10 0 14 -7 12 -22 -3 -21
-10 -23 -63 -26 -103 -6 -158 6 -196 39 -25 23 -26 25 -5 10 15 -11 33 -18 39
-14z m1636 -589 c-12 -24 -71 -131 -132 -238 -150 -267 -794 -1426 -854 -1539
l-48 -91 -68 0 c-122 0 -409 20 -577 41 -173 22 -369 54 -377 63 -3 3 -1 22 4
43 154 581 256 981 273 1071 7 34 16 64 19 67 4 2 52 -3 106 -12 107 -16 262
-13 326 6 20 6 53 22 73 36 l35 24 73 -34 c189 -86 424 -148 570 -149 84 -1
89 0 117 29 17 17 48 74 72 130 81 196 91 233 98 348 l6 107 110 48 c61 26
126 57 145 69 50 30 53 28 29 -19z m-1849 -580 c0 -13 -9 -59 -19 -103 -33
-137 -149 -722 -176 -885 -14 -85 -27 -165 -30 -177 l-5 -21 -87 19 c-204 44
-353 81 -358 89 -3 5 6 107 20 227 14 120 32 279 41 353 18 159 43 332 48 338
3 2 36 8 75 13 91 11 217 53 351 117 121 58 140 62 140 30z"/>
<path d="M15210 11133 c0 -14 70 -124 116 -184 80 -104 184 -180 311 -226 37
-13 135 -40 217 -59 188 -43 289 -89 372 -171 71 -71 108 -136 134 -239 23
-87 27 -244 9 -338 -17 -94 -5 -97 25 -6 22 64 30 112 34 191 8 192 -39 329
-154 444 -84 84 -174 128 -331 162 -291 62 -396 101 -508 186 -64 48 -143 133
-190 205 -27 41 -35 49 -35 35z"/>
<path d="M11477 10080 c-3 -19 -9 -75 -12 -125 -9 -128 -31 -217 -79 -320 -55
-115 -97 -168 -243 -300 -152 -138 -206 -201 -254 -300 -68 -141 -72 -273 -13
-405 29 -64 83 -150 94 -150 4 0 -5 35 -21 79 -43 121 -54 220 -35 311 20 94
71 200 127 265 24 28 93 95 153 150 128 117 180 180 228 278 49 99 68 173 74
297 6 119 -8 281 -19 220z"/>
<path d="M11656 9805 c-24 -201 -116 -373 -268 -503 -35 -29 -120 -82 -191
-119 -113 -58 -135 -73 -173 -122 -24 -31 -44 -60 -44 -64 0 -5 20 9 45 31 30
26 86 57 158 87 141 59 217 108 299 193 84 87 133 162 164 251 28 81 41 216
27 271 -9 35 -10 35 -17 -25z"/>
<path d="M16325 9685 c27 -162 171 -381 305 -462 51 -31 136 -53 199 -52 l56
0 -80 27 c-104 35 -166 72 -242 145 -74 70 -138 164 -199 289 -37 77 -44 86
-39 53z"/>
<path d="M11737 9482 c-38 -107 -89 -174 -268 -352 -163 -163 -179 -182 -220
-265 -44 -88 -44 -90 -43 -189 1 -79 6 -113 23 -158 26 -68 43 -84 30 -30 -5
20 -9 79 -9 130 0 160 37 230 239 445 61 65 125 139 142 164 54 78 141 284
127 299 -2 1 -11 -18 -21 -44z"/>
<path d="M11836 9413 c-35 -142 -103 -281 -207 -423 -143 -197 -167 -238 -194
-321 -36 -114 -35 -205 5 -307 29 -76 70 -148 70 -125 0 6 -9 40 -20 75 -61
188 -29 319 134 558 141 206 191 308 221 449 15 76 30 201 23 201 -3 0 -17
-48 -32 -107z"/>
<path d="M11645 8334 c-27 -60 -75 -147 -105 -194 -78 -119 -77 -116 -43 -92
88 62 161 177 188 297 25 108 13 105 -40 -11z"/>
<path d="M12250 9728 c0 -34 -32 -283 -46 -358 -8 -47 -33 -155 -55 -240 -22
-85 -39 -163 -37 -175 4 -25 98 218 138 357 52 182 63 327 29 401 -13 28 -29
36 -29 15z"/>
<path d="M14117 9380 c-12 -43 -8 -153 8 -215 14 -52 81 -172 91 -162 3 2 -9
34 -26 70 -28 63 -39 114 -58 267 -6 51 -9 59 -15 40z"/>
<path d="M15350 9283 c-57 -11 -111 -12 -225 -7 -374 17 -388 15 -587 -97 -67
-38 -126 -69 -133 -69 -16 0 -38 26 -63 75 -15 29 -21 34 -22 19 -1 -48 31
-123 69 -161 l39 -39 -44 -44 c-91 -89 -130 -224 -120 -415 3 -65 12 -160 19
-210 l12 -90 6 210 c4 161 9 225 24 273 l18 63 31 -54 c17 -30 39 -65 48 -77
l17 -23 40 36 c22 20 64 48 93 63 29 15 93 53 141 85 109 72 162 89 297 96
173 8 288 -29 391 -127 l54 -51 -60 39 c-86 57 -117 71 -202 93 -148 37 -276
16 -394 -65 -185 -128 -233 -162 -236 -172 -7 -20 44 -25 170 -18 105 5 134 3
210 -15 100 -24 126 -25 180 -10 64 17 104 61 119 130 l13 59 52 -35 c54 -36
81 -71 66 -85 -4 -5 -41 -18 -80 -29 -40 -12 -73 -23 -73 -25 0 -7 84 6 168
25 46 10 87 19 91 19 4 0 31 -21 61 -46 29 -25 74 -56 99 -69 56 -28 190 -70
198 -61 3 3 -27 21 -67 40 l-72 33 78 7 c125 11 120 23 -12 28 -126 4 -203 23
-96 24 42 0 71 7 110 28 63 32 64 43 2 21 -49 -17 -107 -19 -145 -5 -15 6 -72
54 -128 108 -165 157 -276 202 -512 205 -157 2 -212 -12 -332 -84 -91 -55
-153 -84 -153 -71 0 16 56 86 103 129 57 53 128 89 213 109 54 12 121 15 344
12 l277 -3 94 -47 c52 -26 136 -79 187 -118 52 -38 95 -70 97 -70 2 0 -3 21
-11 47 -20 65 -17 84 7 43 l20 -35 -6 40 c-17 110 -100 217 -240 312 -119 80
-121 80 -245 56z m136 -65 c24 -38 13 -45 -90 -56 -110 -13 -226 -15 -274 -6
-23 5 -28 10 -25 25 5 16 15 19 67 20 33 0 95 6 136 13 100 18 177 19 186 4z
m-335 -414 c24 -21 8 -54 -25 -54 -28 0 -40 24 -26 51 13 23 28 24 51 3z
m-281 -67 c0 -31 30 -93 54 -110 6 -5 -2 -6 -19 -2 -31 7 -150 24 -173 25 -10
0 -9 8 6 31 21 33 112 100 124 92 5 -2 8 -19 8 -36z"/>
<path d="M12990 9269 c-76 -15 -133 -18 -286 -16 l-190 2 -80 -40 c-96 -49
-189 -137 -227 -215 -47 -97 -87 -300 -59 -300 4 0 41 34 82 76 133 135 259
210 401 240 96 21 477 14 582 -10 113 -25 248 -109 282 -177 34 -65 22 -63
-160 24 l-129 62 -146 0 c-177 0 -264 -18 -390 -81 -75 -37 -104 -60 -182
-140 -51 -52 -105 -102 -120 -110 -34 -18 -131 -17 -183 1 -65 23 -60 -2 8
-36 55 -29 149 -36 207 -16 l45 16 -29 -24 c-48 -38 -138 -59 -258 -60 -60 0
-108 -3 -108 -6 0 -15 41 -22 150 -28 l115 -6 -80 -27 c-47 -16 -69 -27 -54
-28 57 -1 188 57 333 148 69 44 83 49 105 40 49 -19 196 -38 291 -38 63 0 135
9 215 25 117 25 297 35 338 19 10 -3 17 -1 17 6 0 26 -22 48 -62 65 -23 9 -74
40 -113 68 -142 103 -238 134 -379 123 -133 -11 -245 -58 -336 -141 -25 -22
-54 -47 -64 -55 -20 -15 -20 -15 0 18 74 128 279 224 484 226 128 1 182 -15
308 -91 59 -36 143 -78 187 -95 107 -39 117 -50 109 -107 -8 -60 -50 -161 -98
-235 -20 -32 -36 -59 -34 -61 6 -6 134 157 155 198 38 76 56 155 50 224 -5 64
-5 64 16 46 56 -50 97 -221 106 -438 6 -148 7 -157 19 -120 33 105 23 426 -19
559 -27 89 -119 223 -217 319 -64 62 -98 86 -174 122 -103 49 -253 96 -302 94
-17 -1 -74 -9 -126 -20z m-207 -104 c43 -14 90 -25 105 -26 26 -1 26 -1 -4 -9
-18 -4 -83 -3 -145 2 -63 5 -144 7 -180 5 -98 -8 -89 17 21 57 28 10 124 -4
203 -29z m271 -411 c22 -21 3 -56 -27 -52 -25 3 -34 32 -17 53 16 19 25 19 44
-1z m155 -54 c47 -30 108 -87 100 -93 -2 -2 -42 -12 -89 -21 -47 -10 -96 -20
-110 -23 -24 -6 -24 -5 -9 13 29 34 49 82 49 119 0 19 3 35 7 35 3 0 27 -13
52 -30z m-389 -120 l37 -37 -45 8 c-78 15 -120 29 -143 48 l-23 18 54 54 54
53 15 -54 c10 -36 27 -66 51 -90z"/>
<path d="M13878 9092 c-20 -31 -50 -73 -65 -92 l-28 -35 30 19 c64 40 94 78
109 139 10 42 -5 32 -46 -31z"/>
<path d="M14850 8540 c25 -12 83 -31 130 -42 118 -28 220 -22 313 20 75 34 90
50 25 25 -87 -31 -317 -26 -488 13 -14 3 -5 -4 20 -16z"/>
<path d="M12589 8490 c61 -52 149 -75 286 -75 98 0 134 4 194 23 79 25 93 38
21 20 -114 -28 -359 -6 -468 42 -62 28 -73 24 -33 -10z"/>
<path d="M14652 8414 c52 -74 146 -152 233 -195 76 -37 188 -68 248 -69 46 0
30 16 -30 30 -146 32 -289 110 -410 222 -34 32 -65 58 -68 58 -4 0 9 -21 27
-46z"/>
<path d="M12480 8399 c0 -15 116 -113 155 -130 22 -10 60 -18 85 -18 l45 1
-50 12 c-74 18 -133 49 -187 99 -27 24 -48 40 -48 36z"/>
<path d="M15530 8385 c-42 -45 -117 -74 -209 -81 -86 -7 -87 -15 -4 -29 80
-13 199 41 234 107 16 30 5 31 -21 3z"/>
<path d="M13305 8319 c-189 -149 -327 -208 -510 -217 -88 -4 -104 -7 -80 -15
17 -5 75 -9 130 -10 79 0 114 5 165 22 100 35 211 96 273 151 58 52 123 128
115 135 -2 2 -44 -27 -93 -66z"/>
<path d="M13782 7948 c-31 -50 -55 -146 -56 -218 -1 -79 23 -125 89 -170 56
-38 63 -38 30 1 -55 66 -69 107 -69 199 1 47 9 114 18 149 9 35 15 66 12 68
-2 2 -13 -11 -24 -29z"/>
<path d="M14397 7837 c17 -85 12 -149 -17 -214 l-21 -48 38 37 c35 35 38 43
41 105 3 52 -1 82 -18 125 -30 81 -39 79 -23 -5z"/>
<path d="M14586 7789 c45 -67 64 -136 64 -233 0 -129 -40 -189 -165 -247 -56
-26 -58 -28 -28 -29 167 -2 263 110 251 295 -6 86 -39 164 -95 223 -55 57 -69
53 -27 -9z"/>
<path d="M13569 7807 c-45 -30 -95 -106 -115 -175 -33 -114 -1 -257 72 -321
50 -45 144 -64 199 -41 22 9 25 7 -63 35 -64 20 -106 54 -134 109 -18 33 -22
58 -22 131 0 112 21 177 75 239 45 50 40 58 -12 23z"/>
<path d="M14776 7598 c5 -7 42 -58 84 -114 41 -55 106 -145 145 -198 38 -54
74 -100 79 -103 17 -11 -70 143 -124 218 -65 92 -167 209 -181 209 -6 0 -7 -6
-3 -12z"/>
<path d="M13297 7481 c-26 -28 -73 -89 -104 -138 -57 -86 -163 -286 -163 -306
0 -6 43 61 95 148 53 88 121 193 153 234 83 110 84 111 74 111 -5 0 -30 -22
-55 -49z"/>
<path d="M13704 7490 c-29 -11 -64 -58 -64 -85 0 -38 34 -58 103 -62 92 -6
100 -9 169 -61 76 -59 123 -76 192 -70 67 6 113 29 186 94 61 55 74 58 138 38
23 -7 69 24 81 55 17 40 6 70 -32 86 -55 23 -85 9 -173 -80 -97 -100 -131
-119 -204 -119 -71 0 -103 17 -203 111 -100 94 -142 114 -193 93z"/>
<path d="M14189 6947 c-2 -81 -3 -147 -2 -147 1 0 10 14 19 32 13 26 15 49 10
118 -11 159 -23 158 -27 -3z"/>
<path d="M12941 6738 c-26 -139 -20 -236 20 -327 25 -57 33 -49 12 14 -11 36
-16 93 -17 207 0 87 -2 158 -3 158 -1 0 -6 -24 -12 -52z"/>
<path d="M15218 6730 c4 -25 7 -101 6 -169 0 -125 6 -131 26 -22 8 47 7 74 -4
130 -17 83 -40 132 -28 61z"/>
<path d="M13735 6701 c-49 -15 -148 -50 -220 -78 -171 -66 -193 -70 -267 -42
l-59 22 -24 -23 c-28 -26 -40 -67 -25 -85 8 -10 20 -11 45 -4 22 6 57 6 97 -1
84 -13 204 -13 370 2 120 10 154 10 292 -7 l157 -19 127 25 c70 13 152 24 182
23 30 0 129 -1 220 -3 134 -2 183 2 262 19 53 11 102 18 110 16 56 -18 68 -17
68 7 0 35 -37 77 -66 77 -14 0 -39 -7 -56 -16 -46 -24 -136 -13 -303 37 -314
93 -321 94 -444 40 -41 -18 -88 -33 -105 -33 -17 0 -66 17 -109 36 -95 44
-130 45 -252 7z m748 -48 c53 -14 97 -30 97 -34 0 -12 -17 -11 -25 1 -8 13
-55 13 -55 -1 0 -5 -4 -7 -10 -4 -5 3 -16 3 -22 -2 -8 -5 6 -10 37 -14 40 -5
32 -6 -41 -7 -52 -1 -149 -13 -225 -28 l-133 -27 -151 22 c-82 12 -166 22
-185 22 -24 0 -29 3 -17 7 15 7 16 9 2 28 -10 15 -22 20 -42 18 -15 -2 3 7 41
21 91 33 136 32 221 -5 92 -39 159 -40 235 -4 104 50 108 50 273 7z m137 -43
c0 -5 -7 -7 -15 -4 -8 4 -15 8 -15 10 0 2 7 4 15 4 8 0 15 -4 15 -10z m70 -14
c0 -2 -9 -6 -20 -9 -11 -3 -18 -1 -14 4 5 9 34 13 34 5z"/>
<path d="M15511 6448 c-1 -9 -19 -78 -41 -154 -21 -76 -38 -140 -35 -142 4 -5
58 163 75 235 6 29 10 58 7 65 -4 9 -6 7 -6 -4z"/>
<path d="M14690 6373 c-52 -24 -133 -56 -180 -71 -85 -26 -86 -26 -450 -26
-413 -1 -382 -6 -589 90 -52 24 -97 44 -100 44 -20 0 113 -81 213 -130 184
-91 247 -105 445 -103 226 3 388 19 455 43 52 20 288 168 301 190 8 13 15 16
-95 -37z"/>
<path d="M13925 6004 c-49 -8 -110 -21 -134 -29 -52 -17 -131 -62 -131 -74 0
-5 26 -2 58 5 269 64 585 69 806 13 43 -11 80 -18 82 -16 5 5 -115 59 -166 75
-128 41 -348 52 -515 26z"/>
<path d="M16313 8444 c27 -52 90 -100 215 -163 141 -72 189 -117 216 -203 10
-32 20 -58 23 -58 13 0 -6 120 -25 156 -33 63 -80 100 -191 148 -92 40 -139
67 -230 133 l-24 17 16 -30z"/>
<path d="M13420 5050 c0 -5 5 -10 11 -10 5 0 7 5 4 10 -3 6 -8 10 -11 10 -2 0
-4 -4 -4 -10z"/>
</g>
</svg>
