<?xml version="1.0" standalone="no"?>
<!DOCTYPE svg PUBLIC "-//W3C//DTD SVG 20010904//EN"
 "http://www.w3.org/TR/2001/REC-SVG-20010904/DTD/svg10.dtd">
<svg version="1.0" xmlns="http://www.w3.org/2000/svg"
 width="67.000000pt" height="76.000000pt" viewBox="0 0 67.000000 76.000000"
 preserveAspectRatio="xMidYMid meet">

<g transform="translate(0.000000,76.000000) scale(0.100000,-0.100000)"
fill="#000000" stroke="none">
<path d="M0 380 l0 -380 335 0 335 0 0 380 0 380 -335 0 -335 0 0 -380z m360
245 c7 -8 22 -15 34 -15 32 0 62 -25 101 -85 35 -56 37 -78 6 -102 -13 -9 -20
-8 -33 4 -15 14 -16 13 -12 -9 5 -23 5 -23 -11 -3 -17 19 -17 19 -10 -10 11
-44 7 -77 -13 -105 -24 -32 -80 -70 -103 -70 -30 0 -22 18 11 25 45 10 43 20
-4 17 -47 -4 -75 18 -80 62 -1 14 -6 29 -9 33 -11 11 -8 55 3 48 6 -4 17 -1
25 5 8 6 19 9 26 5 7 -5 10 -1 7 11 -2 13 -14 21 -35 24 -26 4 -31 8 -23 20
15 24 12 33 -10 27 -14 -4 -20 0 -20 11 0 23 -16 2 -24 -31 -4 -19 -3 -26 4
-22 6 4 10 -5 10 -21 0 -22 -2 -25 -15 -14 -8 7 -15 18 -15 25 0 8 -5 15 -10
17 -10 3 2 37 35 98 16 29 89 69 126 70 15 0 32 -7 39 -15z m-100 -364 c15
-29 13 -32 -15 -19 -26 11 -30 19 -18 31 11 12 22 8 33 -12z m105 -131 c-14
-28 -20 -31 -53 -28 -30 2 -38 7 -40 26 -3 17 2 22 18 22 12 0 30 -5 40 -10
16 -8 22 -6 32 9 19 31 21 17 3 -19z"/>
<path d="M330 445 c0 -10 10 -15 30 -15 22 0 28 4 24 15 -4 8 -17 15 -30 15
-15 0 -24 -6 -24 -15z"/>
<path d="M280 375 c0 -17 28 -27 46 -17 10 6 6 11 -16 19 -24 9 -30 9 -30 -2z"/>
<path d="M277 328 c-7 -4 9 -8 36 -8 26 0 47 2 47 4 0 8 -71 12 -83 4z"/>
<path d="M298 303 c6 -2 18 -2 25 0 6 3 1 5 -13 5 -14 0 -19 -2 -12 -5z"/>
</g>
</svg>
