<?xml version="1.0" standalone="no"?>
<!DOCTYPE svg PUBLIC "-//W3C//DTD SVG 20010904//EN"
 "http://www.w3.org/TR/2001/REC-SVG-20010904/DTD/svg10.dtd">
<svg version="1.0" xmlns="http://www.w3.org/2000/svg"
 width="102.000000pt" height="112.000000pt" viewBox="0 0 102.000000 112.000000"
 preserveAspectRatio="xMidYMid meet">

<g transform="translate(0.000000,112.000000) scale(0.100000,-0.100000)"
fill="#000000" stroke="none">
<path d="M0 560 l0 -560 510 0 510 0 0 560 0 560 -510 0 -510 0 0 -560z m540
321 c19 -10 51 -21 70 -25 48 -9 79 -38 134 -125 37 -58 46 -80 41 -100 -3
-14 -6 -32 -7 -38 -1 -7 -10 -15 -20 -19 -10 -3 -18 -10 -18 -15 0 -20 -18 -7
-36 26 -10 19 -22 35 -27 35 -5 0 0 -16 12 -35 19 -33 19 -35 2 -35 -13 0 -21
12 -29 43 -11 40 -11 40 -6 5 3 -23 -1 -49 -11 -67 -9 -19 -11 -32 -5 -36 6
-3 10 3 10 14 0 11 4 22 9 25 5 3 9 -18 10 -48 0 -44 -5 -61 -28 -93 -34 -47
-95 -90 -140 -99 -46 -9 -38 14 11 30 42 15 111 56 104 63 -2 3 2 25 9 50 18
58 5 46 -15 -14 -17 -52 -61 -83 -119 -83 -45 0 -116 68 -107 103 3 14 -2 35
-14 55 -21 34 -26 72 -11 72 6 0 13 -4 16 -10 3 -5 12 -10 18 -10 8 0 8 3 -2
9 -18 12 -3 18 42 16 30 -1 37 2 37 17 0 21 -36 38 -80 38 l-29 0 24 48 c31
61 61 89 110 101 25 5 31 9 17 10 -34 2 -86 -23 -109 -53 -21 -26 -41 -37 -27
-14 4 7 3 8 -4 4 -7 -4 -12 -16 -12 -27 0 -21 -16 -26 -22 -7 -2 6 -23 -9 -46
-33 -41 -44 -42 -44 -42 -17 0 15 6 42 14 60 8 18 18 46 21 62 8 37 47 73 115
109 63 32 93 34 140 8z m-223 -288 c1 -23 -3 -46 -9 -49 -6 -4 -8 1 -3 15 3
11 3 21 -2 21 -12 0 -35 39 -28 50 3 5 13 8 23 7 13 -1 18 -11 19 -44z m33
-127 c0 -8 3 -22 7 -32 4 -11 3 -15 -4 -11 -13 8 -23 57 -12 57 5 0 9 -6 9
-14z m36 -111 c9 -8 12 -15 8 -15 -4 0 1 -9 11 -20 20 -22 9 -26 -30 -8 -26
12 -29 17 -19 42 8 20 12 20 30 1z m178 -198 c-17 -35 -35 -57 -48 -60 -34 -8
-111 7 -110 21 1 6 2 19 3 27 2 27 47 37 88 20 37 -16 63 -8 63 19 0 13 21 38
27 32 2 -2 -8 -29 -23 -59z"/>
<path d="M597 763 c36 -32 43 -45 46 -83 l4 -45 1 45 c2 52 0 56 -53 93 l-40
29 42 -39z"/>
<path d="M516 617 c-15 -11 -15 -15 -4 -24 12 -10 98 -25 98 -17 0 2 -12 11
-27 19 l-28 16 34 -5 c29 -5 32 -4 21 9 -15 18 -70 20 -94 2z"/>
<path d="M442 528 c-11 -30 -10 -35 9 -51 20 -16 24 -16 39 -2 9 8 20 12 23 8
4 -3 7 -1 7 5 0 7 -9 12 -19 12 -36 0 -48 10 -43 36 6 34 -1 30 -16 -8z"/>
<path d="M415 430 c3 -5 35 -9 71 -8 79 2 63 18 -19 18 -36 0 -56 -4 -52 -10z"/>
<path d="M428 403 c6 -2 9 -10 5 -15 -4 -8 2 -9 18 -5 13 4 34 7 47 7 12 0 22
5 22 10 0 6 -24 10 -52 9 -29 0 -47 -3 -40 -6z"/>
</g>
</svg>
