<?xml version="1.0" standalone="no"?>
<!DOCTYPE svg PUBLIC "-//W3C//DTD SVG 20010904//EN"
 "http://www.w3.org/TR/2001/REC-SVG-20010904/DTD/svg10.dtd">
<svg version="1.0" xmlns="http://www.w3.org/2000/svg"
 width="281.000000pt" height="334.000000pt" viewBox="0 0 281.000000 334.000000"
 preserveAspectRatio="xMidYMid meet">

<g transform="translate(0.000000,334.000000) scale(0.100000,-0.100000)"
fill="#000000" stroke="none">
<path d="M0 1670 l0 -1670 1405 0 1405 0 0 1670 0 1670 -1405 0 -1405 0 0
-1670z m1400 1236 c31 -7 69 -20 87 -29 30 -16 83 -71 83 -87 0 -4 18 -3 41 2
29 8 55 7 93 -1 71 -16 250 -127 243 -151 -1 -4 12 -19 30 -33 17 -15 52 -67
77 -116 31 -60 61 -103 92 -130 l45 -40 -33 -3 -33 -3 45 -25 c34 -19 52 -38
73 -80 16 -31 23 -56 17 -58 -5 -2 -10 -21 -10 -42 0 -21 -6 -45 -14 -52 -24
-25 -29 -58 -11 -78 15 -17 15 -19 -3 -24 -11 -4 -31 -2 -46 4 -19 7 -25 7
-20 -1 4 -7 -2 -9 -17 -7 -21 3 -24 -2 -30 -40 -3 -23 -11 -48 -18 -55 -11
-10 -12 -8 -7 10 4 12 2 24 -3 27 -5 4 -13 -4 -17 -16 -4 -13 -15 -33 -25 -46
l-18 -23 6 35 c3 19 1 48 -5 65 -9 25 -8 29 4 24 8 -3 14 1 14 10 0 9 -19 26
-42 39 -23 13 -44 29 -46 37 -3 9 0 11 9 6 9 -5 10 -4 4 1 -5 5 -27 25 -49 44
l-38 35 14 -30 c9 -16 13 -36 10 -44 -3 -8 0 -11 7 -7 7 4 9 2 5 -7 -3 -9 12
-29 40 -52 43 -35 46 -40 46 -87 0 -35 -4 -50 -16 -55 -20 -7 -64 34 -64 61 0
23 -16 53 -23 46 -3 -3 -1 -27 3 -55 12 -67 12 -97 1 -91 -24 15 -29 -133 -6
-174 17 -30 19 -44 5 -35 -6 4 -10 -9 -10 -32 0 -41 -19 -85 -21 -48 0 11 -7
0 -14 -25 -8 -25 -21 -49 -28 -55 -8 -5 -21 -24 -30 -41 -56 -109 -256 -257
-425 -315 l-53 -18 -9 25 c-25 65 -24 72 12 79 117 23 246 84 343 160 39 30
79 59 90 64 29 13 67 60 59 73 -4 7 -12 1 -20 -15 -11 -20 -63 -57 -80 -57 -2
0 4 16 12 35 7 19 14 56 14 83 0 26 4 52 9 57 6 6 25 53 44 105 19 52 44 121
56 152 11 32 21 79 21 105 0 55 -25 194 -42 236 -6 16 -11 73 -12 127 -1 98
-1 98 -41 157 -27 39 -61 71 -105 100 -48 31 -71 54 -90 90 l-26 48 -35 -36
c-39 -39 -71 -49 -159 -49 -72 0 -126 -19 -204 -71 l-61 -42 35 38 35 38 -33
-23 c-45 -30 -90 -94 -102 -144 -6 -23 -15 -50 -20 -61 -13 -30 -13 66 0 101
6 15 8 29 6 32 -9 8 -76 -140 -77 -168 0 -14 -4 -34 -9 -45 -8 -19 -9 -19 -9
3 -1 13 -5 21 -10 17 -9 -5 -31 53 -31 83 0 6 -4 12 -10 12 -5 0 -10 -11 -10
-25 0 -54 -54 -118 -142 -168 -43 -25 -47 -30 -53 -79 -7 -46 -9 -50 -21 -34
-7 10 -16 38 -20 62 -3 24 -10 41 -15 38 -17 -10 -9 51 10 82 18 30 18 31 1
27 -31 -8 -31 14 0 27 43 18 70 60 80 127 14 85 26 122 55 165 l26 39 -27 -18
c-27 -17 -27 -17 -15 5 18 33 90 99 124 113 l30 13 -24 9 -24 10 30 11 c17 5
77 35 135 64 193 99 271 117 390 88z m164 -288 c7 -29 43 -68 109 -117 112
-83 129 -117 127 -241 -1 -53 4 -102 13 -130 17 -53 37 -174 37 -228 0 -20
-11 -61 -25 -90 -13 -29 -24 -53 -24 -55 4 -15 -20 -96 -44 -147 -21 -45 -30
-78 -29 -109 2 -62 -32 -134 -87 -182 -53 -47 -130 -88 -150 -81 -8 2 -11 1
-8 -4 6 -11 -113 -12 -130 -1 -8 5 -13 3 -13 -3 0 -6 -4 -8 -10 -5 -9 5 -140
13 -140 8 0 -1 15 -7 33 -12 28 -8 29 -9 7 -10 -14 0 -36 9 -50 20 -14 11 -18
18 -10 14 8 -4 -6 12 -32 37 -26 24 -52 56 -57 72 -7 17 -15 24 -23 20 -8 -5
-9 -2 -5 9 4 10 2 16 -5 14 -14 -3 -27 41 -21 71 3 12 -2 33 -11 46 -20 31
-34 112 -18 102 22 -13 12 23 -22 81 -18 32 -36 68 -40 80 -4 11 -13 26 -21
33 -8 6 -11 18 -8 26 3 8 0 14 -6 14 -7 0 -10 19 -9 48 l1 47 6 -45 c5 -38 8
-41 14 -22 5 12 15 22 23 22 8 0 14 7 14 15 0 8 5 15 10 15 6 0 10 -6 10 -14
0 -26 59 -66 96 -66 38 0 83 19 103 44 9 11 -4 8 -43 -10 -57 -26 -103 -29
-98 -6 1 8 -1 11 -6 8 -9 -6 -47 52 -39 61 3 2 14 0 25 -6 12 -6 38 -11 59
-10 42 1 37 4 -19 14 -21 3 -38 11 -38 16 0 6 9 8 20 4 15 -5 18 -3 14 9 -3 9
-2 16 4 16 5 0 12 -7 16 -15 9 -24 67 -20 73 5 l6 21 19 -21 c33 -36 52 -23
21 14 -10 12 -3 8 14 -8 19 -17 30 -35 26 -45 -3 -12 0 -11 12 4 15 19 15 17
10 -35 -9 -82 -14 -100 -29 -100 -7 0 -21 -17 -30 -38 -35 -78 8 -158 84 -155
28 1 43 -3 51 -15 9 -14 10 -15 6 -1 -3 9 2 29 12 45 15 25 22 28 63 25 38 -2
49 1 57 18 14 26 14 68 -1 77 -8 5 -9 0 -5 -15 10 -40 0 -50 -38 -38 -18 5
-42 6 -52 2 -87 -37 -147 12 -119 98 8 23 17 76 21 118 8 90 -7 132 -61 168
-35 24 -128 46 -147 34 -14 -8 29 -24 47 -17 8 3 17 1 20 -5 4 -6 -24 -11 -73
-13 -63 -2 -77 0 -69 10 6 6 19 12 29 12 10 0 21 5 24 10 14 23 -51 -3 -77
-31 -34 -36 -34 -34 -4 35 16 37 21 57 14 64 -14 14 -5 129 11 145 10 9 11 9
6 -5 -4 -9 4 -40 17 -70 l23 -53 6 65 c10 99 31 139 97 188 100 74 155 96 257
102 91 5 136 22 149 56 8 21 23 17 30 -8z m-703 -381 c-10 -9 -11 -8 -5 6 3
10 9 15 12 12 3 -3 0 -11 -7 -18z m-26 -87 c-16 -17 -44 -35 -62 -42 -45 -16
-42 -30 5 -22 l37 6 -32 -30 c-34 -32 -47 -57 -15 -30 37 32 44 30 18 -5 -33
-43 -24 -49 16 -10 15 14 31 24 34 20 8 -7 -28 -67 -55 -91 -18 -16 -20 -15
-54 40 -67 107 -59 139 41 168 31 9 64 20 72 26 27 17 24 0 -5 -30z m310 -102
c7 -8 6 -9 -3 -3 -24 13 -101 -5 -132 -31 -38 -32 -41 -10 -4 30 25 26 31 28
78 21 28 -3 56 -11 61 -17z m-229 -74 c-3 -8 -9 -14 -14 -14 -8 0 -5 26 9 95
1 6 4 -7 6 -29 3 -21 2 -44 -1 -52z m-89 -31 c-8 -15 -23 -56 -32 -91 -20 -69
-31 -70 -37 -3 -3 38 0 48 35 87 43 49 57 52 34 7z m2 -165 c-8 -14 -14 -18
-17 -10 -4 13 17 46 25 38 3 -2 -1 -15 -8 -28z m391 -13 c0 -14 -4 -25 -10
-25 -11 0 -14 33 -3 43 11 11 13 8 13 -18z m760 21 c0 -8 -23 -73 -33 -93 -5
-13 -19 -23 -29 -23 -29 0 -22 44 15 83 28 31 47 44 47 33z m-1070 -189 c6
-40 21 -90 34 -112 49 -85 37 -100 -14 -18 -17 26 -30 39 -33 31 -3 -7 -8 6
-12 30 -4 23 -11 42 -15 42 -4 0 -4 17 0 37 5 21 5 42 1 48 -12 15 -23 84 -15
97 10 16 41 -73 54 -155z m145 -307 c12 -14 28 -41 35 -60 7 -19 28 -66 47
-104 18 -38 32 -70 30 -72 -1 -1 -57 24 -125 56 -113 55 -122 62 -122 87 0 35
34 110 62 140 l21 23 15 -23 c8 -12 25 -33 37 -47z m260 -82 c6 -4 0 -8 -12
-8 -16 0 -21 4 -16 15 3 9 8 12 12 8 3 -4 11 -11 16 -15z m98 -5 c-7 -2 -21
-2 -30 0 -10 3 -4 5 12 5 17 0 24 -2 18 -5z m156 -524 l-101 -202 -141 6
c-129 6 -235 22 -251 38 -4 3 1 47 11 97 21 107 31 116 132 113 54 -2 74 -8
134 -42 90 -51 121 -58 148 -33 27 25 69 107 69 136 0 13 4 28 8 34 7 12 71
52 84 53 4 1 -38 -90 -93 -200z m-551 -471 l-2 -63 -3 53 c-3 31 -9 52 -16 52
-7 0 -6 4 3 10 8 5 16 10 18 10 1 0 1 -28 0 -62z m100 31 c2 -15 -5 -32 -18
-44 -27 -24 -25 -33 8 -38 22 -3 20 -4 -10 -6 -21 0 -38 2 -38 6 0 3 11 21 25
39 14 18 25 37 25 43 0 17 -22 24 -31 10 -4 -7 -11 -10 -14 -7 -12 12 7 29 28
26 15 -2 23 -11 25 -29z m85 18 c3 -8 1 -20 -3 -27 -5 -8 -4 -22 1 -33 12 -20
-4 -47 -27 -47 -18 0 -37 37 -24 45 6 3 7 17 4 30 -3 13 -3 29 1 34 9 15 42
14 48 -2z m152 -47 c0 -51 -2 -55 -24 -55 -13 0 -27 7 -29 15 -4 13 -3 13 11
2 9 -8 21 -11 27 -7 15 9 12 35 -5 41 -14 6 -13 8 2 20 14 10 15 15 6 25 -10
10 -15 9 -28 -1 -8 -7 -15 -8 -15 -3 0 16 13 24 35 21 17 -3 20 -10 20 -58z
m82 49 c13 -13 7 -34 -20 -69 l-19 -25 29 -6 c26 -6 25 -7 -9 -8 -21 0 -38 2
-38 5 0 3 11 20 25 38 14 18 25 38 25 44 0 18 -22 26 -31 11 -4 -7 -11 -10
-14 -7 -11 10 4 28 24 28 9 0 22 -5 28 -11z m-170 -28 c16 14 18 -2 2 -18 -8
-8 -8 -17 0 -31 16 -29 13 -41 -4 -18 -13 17 -15 17 -21 3 -3 -10 -10 -17 -15
-17 -6 0 -5 9 1 21 7 11 9 33 5 47 -5 22 -4 24 6 15 9 -9 16 -10 26 -2z m299
-15 c7 -29 -11 -66 -31 -66 -8 0 -15 -7 -15 -15 0 -8 -4 -15 -10 -15 -6 0 -10
27 -10 60 0 60 0 60 30 60 23 0 31 -5 36 -24z m37 12 c4 -10 8 -9 16 2 5 8 13
11 17 7 4 -3 1 -13 -5 -21 -9 -11 -10 -20 -2 -35 15 -28 13 -39 -3 -18 -14 18
-15 18 -24 0 -6 -10 -14 -15 -18 -11 -4 4 -1 15 6 23 10 12 10 21 2 40 -7 14
-8 25 -3 25 5 0 12 -6 14 -12z"/>
<path d="M830 2507 c-14 -24 -15 -104 0 -140 6 -16 7 -9 3 23 -3 25 0 65 7 89
13 50 10 59 -10 28z"/>
<path d="M912 2517 c-21 -25 -52 -102 -51 -127 1 -20 4 -16 14 16 7 22 22 59
34 82 22 42 23 53 3 29z"/>
<path d="M1950 2077 c0 -2 15 -16 33 -33 l32 -29 -29 33 c-28 30 -36 37 -36
29z"/>
<path d="M1431 2104 l-31 -26 -9 24 c-6 14 -10 17 -10 7 -1 -8 5 -24 13 -35
13 -16 12 -21 -1 -36 -17 -19 -11 -45 13 -55 9 -3 32 2 52 11 22 10 32 12 25
5 -17 -17 -16 -26 2 -26 8 0 15 6 15 13 0 22 24 22 35 0 15 -29 60 -33 75 -7
12 24 35 29 26 5 -4 -11 -1 -14 12 -10 10 4 27 -1 38 -9 33 -25 39 -16 9 15
-32 34 -110 63 -168 63 -64 0 -16 19 62 25 47 3 77 0 105 -12 47 -19 46 -19
46 -2 0 21 -68 76 -93 75 -17 -1 -15 -3 9 -10 17 -5 37 -16 44 -24 11 -13 8
-13 -26 -1 -22 7 -45 11 -51 9 -7 -3 -13 2 -13 10 0 10 -8 13 -26 9 -19 -3
-22 -7 -12 -13 8 -5 -9 -9 -45 -9 -40 0 -56 3 -51 11 4 7 21 9 40 6 21 -4 32
-2 29 4 -13 20 -83 10 -114 -17z"/>
<path d="M1340 2091 c0 -5 5 -13 10 -16 6 -3 10 -2 10 4 0 5 -4 13 -10 16 -5
3 -10 2 -10 -4z"/>
<path d="M1718 1983 c7 -3 16 -2 19 1 4 3 -2 6 -13 5 -11 0 -14 -3 -6 -6z"/>
<path d="M1480 1905 c14 -15 38 -34 53 -42 50 -26 38 -8 -21 31 -47 31 -53 33
-32 11z"/>
<path d="M1510 1698 c18 -27 35 -48 37 -48 8 0 -33 62 -51 78 -11 9 -5 -4 14
-30z"/>
<path d="M1132 1703 c-28 -40 -64 -113 -60 -123 2 -5 22 27 46 71 43 80 49
102 14 52z"/>
<path d="M1011 1544 c0 -11 3 -14 6 -6 3 7 2 16 -1 19 -3 4 -6 -2 -5 -13z"/>
<path d="M1110 1520 c-6 -11 -15 -18 -21 -15 -5 4 -9 -3 -9 -15 0 -19 4 -20
38 -14 20 4 128 8 240 8 111 0 202 4 202 8 0 9 -38 21 -48 14 -5 -3 -37 2 -73
10 -35 9 -81 13 -102 11 -22 -3 -51 -1 -67 4 -21 8 -37 6 -65 -5 -47 -20 -55
-20 -55 -1 0 22 -28 18 -40 -5z"/>
<path d="M1170 1453 c0 -5 7 -19 16 -32 20 -27 7 -41 -38 -41 -33 0 -38 -24
-9 -40 28 -14 57 -12 94 7 21 11 57 16 105 16 42 0 67 4 60 9 -7 4 -21 8 -32
8 -16 0 -16 2 -5 16 7 8 25 21 41 27 25 10 14 12 -83 15 -61 1 -120 7 -130 13
-10 5 -19 6 -19 2z"/>
<path d="M1378 1393 c7 -3 16 -2 19 1 4 3 -2 6 -13 5 -11 0 -14 -3 -6 -6z"/>
<path d="M1300 1256 c0 -2 7 -6 15 -10 8 -3 15 -1 15 4 0 6 -7 10 -15 10 -8 0
-15 -2 -15 -4z"/>
<path d="M1171 673 c-1 -6 -4 -20 -7 -30 -5 -17 -5 -17 6 0 6 10 9 23 6 30 -3
9 -5 9 -5 0z"/>
<path d="M1165 250 c-7 -12 2 -30 16 -30 5 0 9 9 9 20 0 21 -15 27 -25 10z"/>
<path d="M1164 196 c-4 -10 -2 -22 4 -28 8 -8 13 -7 18 6 4 10 2 22 -4 28 -8
8 -13 7 -18 -6z"/>
<path d="M1522 198 c2 -18 8 -33 13 -33 6 0 11 15 13 33 3 24 -1 32 -13 32
-12 0 -16 -8 -13 -32z"/>
</g>
</svg>
